<?xml version="1.0" standalone="no"?>
<!DOCTYPE svg PUBLIC "-//W3C//DTD SVG 20010904//EN"
 "http://www.w3.org/TR/2001/REC-SVG-20010904/DTD/svg10.dtd">
<svg version="1.0" xmlns="http://www.w3.org/2000/svg"
 width="2000.000000pt" height="1500.000000pt" viewBox="0 0 2000.000000 1500.000000"
 preserveAspectRatio="xMidYMid meet">

<g transform="translate(0.000000,1500.000000) scale(0.100000,-0.100000)"
fill="#d9daa0" stroke="none">
<path d="M10850 12169 c-322 -26 -657 -98 -930 -200 -254 -96 -577 -280 -785
-449 -235 -189 -418 -406 -544 -641 -49 -92 -121 -265 -121 -291 0 -7 21 -24
46 -38 122 -64 274 -210 342 -327 70 -121 122 -287 122 -389 l0 -37 118 114
c249 242 557 437 901 570 l110 42 6 66 c18 216 61 383 131 510 48 88 82 133
157 210 219 223 542 327 942 300 331 -22 570 -157 694 -389 17 -31 42 -96 56
-145 48 -163 44 -439 -10 -618 l-14 -48 92 50 c258 139 585 234 889 257 l87 7
-4 46 c-3 25 -7 81 -10 123 -11 165 -59 336 -136 488 -233 455 -750 728 -1494
790 -140 11 -494 11 -645 -1z"/>
<path d="M7565 10419 c-558 -57 -996 -358 -1123 -771 -70 -226 -47 -452 68
-683 88 -176 139 -241 563 -718 60 -67 155 -183 211 -257 166 -221 230 -344
283 -548 25 -98 28 -122 27 -282 -1 -204 -16 -279 -86 -420 -52 -105 -169
-228 -265 -278 -129 -68 -332 -92 -481 -57 -137 32 -271 133 -335 252 -62 116
-85 310 -52 438 59 223 283 379 582 402 96 7 94 4 63 107 -25 78 -99 166 -178
209 -153 83 -425 90 -612 15 -257 -102 -449 -330 -526 -623 -24 -89 -27 -118
-27 -270 0 -181 10 -250 56 -376 103 -286 359 -495 713 -583 427 -107 950 -54
1327 135 409 204 673 547 754 979 27 147 24 460 -6 600 -76 357 -236 602 -621
953 -462 421 -585 573 -640 792 -26 101 -28 266 -5 356 55 210 206 333 443
360 161 18 309 -19 395 -100 137 -128 155 -348 46 -571 -33 -66 -58 -101 -115
-157 l-74 -71 37 -33 c68 -59 115 -74 233 -73 83 0 116 5 160 22 203 81 321
309 308 596 -16 351 -240 571 -650 641 -113 19 -357 26 -473 14z"/>
<path d="M13056 10420 c-580 -52 -1071 -334 -1427 -819 -259 -352 -421 -813
-448 -1274 -25 -432 50 -845 201 -1102 202 -343 506 -514 963 -541 205 -11
506 60 735 176 33 17 60 25 60 19 0 -21 -221 -1005 -255 -1136 -50 -191 -119
-361 -177 -432 l-21 -26 8 40 c13 74 24 159 20 163 -2 2 -39 -8 -83 -22 -169
-53 -351 -73 -517 -56 -160 16 -153 13 -160 75 -9 67 15 189 50 261 32 65 112
147 175 179 149 76 326 51 479 -65 29 -23 55 -40 57 -38 2 2 11 47 20 98 29
170 6 292 -72 379 -87 96 -209 133 -449 135 -173 1 -222 -8 -345 -66 -70 -34
-100 -56 -171 -127 -73 -74 -94 -103 -138 -192 -59 -118 -91 -247 -91 -366 0
-40 -4 -73 -9 -73 -19 0 -164 72 -461 228 -334 177 -510 258 -643 296 -46 13
-83 30 -85 37 -1 8 196 939 439 2069 242 1130 443 2069 446 2086 l5 32 -118 8
c-599 38 -1323 -243 -1762 -685 -279 -282 -422 -604 -398 -898 26 -316 190
-473 515 -490 100 -6 104 -5 96 13 -59 143 -81 280 -71 454 13 239 59 419 152
600 96 188 232 341 404 455 103 69 246 143 255 133 4 -3 -187 -908 -424 -2010
-237 -1102 -431 -2008 -431 -2014 0 -7 49 -13 143 -17 424 -16 725 -162 1357
-660 498 -393 721 -538 940 -611 304 -101 505 -56 656 148 l47 63 101 18 c130
22 258 64 371 121 352 176 588 540 740 1144 26 104 515 2336 515 2352 0 4
-169 8 -375 8 -206 0 -375 -1 -375 -3 0 -11 -242 -1068 -251 -1094 -24 -75
-194 -187 -324 -214 -88 -18 -257 -16 -335 4 -285 74 -465 339 -509 749 -46
418 68 954 291 1368 249 464 508 727 813 826 98 32 238 37 325 11 149 -44 244
-167 264 -343 20 -168 -86 -429 -207 -511 l-46 -31 34 -26 c99 -76 213 -111
360 -110 138 0 202 22 274 94 98 98 135 217 135 430 0 130 -3 154 -27 225 -93
281 -352 470 -734 535 -133 23 -369 32 -507 20z"/>
<path d="M9490 7975 c12 -15 30 -12 30 6 0 5 -10 9 -21 9 -18 0 -19 -2 -9 -15z"/>
<path d="M10769 7103 l-136 -636 31 -73 c30 -71 32 -73 91 -99 33 -14 154 -75
269 -135 202 -106 225 -114 226 -77 0 17 81 170 120 227 52 77 149 180 212
226 l49 36 -58 35 c-198 120 -386 334 -498 567 -71 150 -110 278 -163 533 -5
25 -40 -120 -143 -604z"/>
<path d="M8785 6888 c-2 -7 -16 -49 -30 -93 -215 -658 -870 -1113 -1675 -1163
l-115 -7 -23 -85 c-81 -308 -98 -715 -42 -1046 89 -526 363 -940 820 -1237
438 -284 1014 -427 1719 -427 845 0 1551 195 2141 590 233 157 508 405 664
600 64 80 187 260 233 342 l21 36 -67 -34 c-37 -19 -105 -44 -151 -55 -74 -19
-103 -21 -220 -16 -328 14 -584 132 -1064 491 -92 69 -172 123 -177 120 -5 -3
-9 -13 -9 -22 0 -9 -18 -69 -39 -133 -175 -518 -559 -855 -1066 -934 -152 -24
-441 -16 -565 14 -208 52 -357 131 -497 265 -168 159 -275 355 -322 593 -57
285 -29 543 83 768 114 228 308 399 589 519 l102 43 82 379 c45 209 82 380 83
381 0 1 -35 15 -77 31 -93 36 -217 69 -293 77 -30 3 -65 8 -78 11 -13 3 -24
-1 -27 -8z"/>
</g>
</svg>
